<?xml version="1.0" standalone="no"?><!DOCTYPE svg PUBLIC "-//W3C//DTD SVG 1.1//EN" "http://www.w3.org/Graphics/SVG/1.1/DTD/svg11.dtd"><svg t="1538116773570" class="icon" style="" viewBox="0 0 1024 1024" version="1.1" xmlns="http://www.w3.org/2000/svg" p-id="1014" xmlns:xlink="http://www.w3.org/1999/xlink" width="200" height="200"><defs><style type="text/css"></style></defs><path d="M276.67721482 861.52533333H46.20894815V48.63620741h932.79573333l-1.45635556 264.81398518-72.81777777-0.36408889 1.09226667-191.63211852H119.02672592V788.70755555h157.6504889zM156.52788148 903.63828148h200.24888889v72.81777777h-200.24888889z" fill="" p-id="1015"></path><path d="M667.10186667 775.96444445c-58.0114963 0-105.34305185-47.21019259-105.34305185-105.34305186 0-58.0114963 47.21019259-105.34305185 105.34305185-105.34305184 58.0114963 0 105.34305185 47.21019259 105.34305185 105.34305184s-47.21019259 105.34305185-105.34305185 105.34305186z m0-149.88325927c-24.63668148 0-44.66157037 20.02488889-44.66157037 44.66157037s20.02488889 44.66157037 44.66157037 44.66157037 44.66157037-20.02488889 44.66157036-44.66157037-20.02488889-44.66157037-44.66157036-44.66157037z" fill="" p-id="1016"></path><path d="M760.55134815 976.45605925H574.62328889v-90.53677036c-16.384-7.03905185-31.7970963-16.01991111-46.23928889-26.69985186l-78.40047408 45.51111112-92.84266667-161.5341037 78.0363852-45.2683852c-1.09226667-9.10222222-1.57771852-18.20444445-1.57771853-27.30666666 0-8.8594963 0.48545185-17.59762963 1.45635556-26.33576296L356.65540741 598.89588148l92.84266667-161.5341037 78.03638517 45.26838519c14.32082963-10.8013037 29.73392592-19.78216297 46.11792593-26.94257779v-90.90085926H759.58044445v90.53677038c16.384 7.03905185 31.7970963 16.01991111 46.23928888 26.69985185l78.40047408-45.51111112L977.18423703 598.1677037 899.14785185 643.31472592c1.09226667 9.10222222 1.57771852 18.20444445 1.57771852 27.30666667 0 8.8594963-0.48545185 17.59762963-1.45635555 26.33576296l78.40047407 45.38974815L884.70565925 904.00237037l-78.03638517-45.26838519c-14.32082963 10.8013037-29.73392592 19.78216297-46.11792593 26.94257779v90.77949628z m-125.24657778-60.68148147h64.5650963v-73.0605037l20.87442963-6.79632593c23.18032592-7.64586667 44.17611852-19.90352592 62.50192592-36.4088889l16.384-14.92764443 62.86601481 36.40888888 32.40391112-56.31241481-62.98737778-36.53025186 4.49042963-21.48124444c2.42725925-11.77220741 3.76225185-23.9085037 3.76225185-35.92343704 0-12.37902222-1.33499259-24.75804445-3.88361482-36.77297777l-4.61179258-21.60260741 62.8660148-36.40888889-32.4039111-56.31241481-62.98737778 36.53025185-16.50536296-14.80628149c-18.32580741-16.50536297-39.3216-28.64165925-62.62328889-36.16616295l-20.9957926-6.79632593v-72.81777778h-64.56509629V498.65007408l-20.87442963 6.79632592c-23.18032592 7.64586667-44.29748148 19.90352592-62.50192592 36.40888889L534.69487408 556.9042963l-62.86601483-36.40888889-32.4039111 56.31241481 62.98737777 36.53025186-4.49042962 21.48124444c-2.42725925 11.77220741-3.76225185 23.9085037-3.76225185 35.92343703 0 12.37902222 1.33499259 24.75804445 3.8836148 36.77297778l4.6117926 21.60260742-62.86601482 36.40888888 32.40391112 56.31241482 62.98737777-36.53025186 16.384 14.80628149c18.32580741 16.50536297 39.3216 28.64165925 62.6232889 36.16616295l20.99579259 6.79632594v72.69641481z" fill="" p-id="1017"></path></svg>